<svg xmlns="http://www.w3.org/2000/svg" xmlns:xlink="http://www.w3.org/1999/xlink" width="500" zoomAndPan="magnify" viewBox="0 0 375 374.999991" height="500" preserveAspectRatio="xMidYMid meet" version="1.0"><defs><filter x="0%" y="0%" width="100%" height="100%" id="3f83eef97f"><feColorMatrix values="0 0 0 0 1 0 0 0 0 1 0 0 0 0 1 0 0 0 1 0" color-interpolation-filters="sRGB"/></filter><g/><clipPath id="b9e246c1fa"><path d="M 136.34375 97 L 256 97 L 256 197.886719 L 136.34375 197.886719 Z M 136.34375 97 " clip-rule="nonzero"/></clipPath><clipPath id="09f7f3d42c"><path d="M 254 115 L 260.09375 115 L 260.09375 119 L 254 119 Z M 254 115 " clip-rule="nonzero"/></clipPath><clipPath id="5b68634dfa"><rect x="0" width="312" y="0" height="102"/></clipPath><mask id="71adfe03d2"><g filter="url(#3f83eef97f)"><rect x="-37.5" width="450" fill="#000000" y="-37.499999" height="449.999989" fill-opacity="0.89"/></g></mask><clipPath id="4caf0aa1a4"><path d="M 0.359375 0.398438 L 15 0.398438 L 15 14 L 0.359375 14 Z M 0.359375 0.398438 " clip-rule="nonzero"/></clipPath><clipPath id="6b341df0a2"><path d="M 17 0.398438 L 30 0.398438 L 30 14 L 17 14 Z M 17 0.398438 " clip-rule="nonzero"/></clipPath><clipPath id="058edc8fc3"><path d="M 39 0.398438 L 51 0.398438 L 51 14 L 39 14 Z M 39 0.398438 " clip-rule="nonzero"/></clipPath><clipPath id="31b913ed4c"><path d="M 54 0.398438 L 58 0.398438 L 58 14 L 54 14 Z M 54 0.398438 " clip-rule="nonzero"/></clipPath><clipPath id="24e1c17dd6"><path d="M 61 0.398438 L 74 0.398438 L 74 14 L 61 14 Z M 61 0.398438 " clip-rule="nonzero"/></clipPath><clipPath id="ce8b39aed4"><path d="M 76 0.398438 L 90 0.398438 L 90 14 L 76 14 Z M 76 0.398438 " clip-rule="nonzero"/></clipPath><clipPath id="2bdb817238"><path d="M 93 0.398438 L 101 0.398438 L 101 14 L 93 14 Z M 93 0.398438 " clip-rule="nonzero"/></clipPath><clipPath id="f6cc5e0095"><path d="M 112 0.398438 L 124 0.398438 L 124 14 L 112 14 Z M 112 0.398438 " clip-rule="nonzero"/></clipPath><clipPath id="acd095d526"><path d="M 126 0.398438 L 137 0.398438 L 137 14 L 126 14 Z M 126 0.398438 " clip-rule="nonzero"/></clipPath><clipPath id="f40089d1be"><path d="M 140 0.398438 L 153 0.398438 L 153 14 L 140 14 Z M 140 0.398438 " clip-rule="nonzero"/></clipPath><clipPath id="265c9f91c4"><path d="M 156 0.398438 L 164 0.398438 L 164 14 L 156 14 Z M 156 0.398438 " clip-rule="nonzero"/></clipPath><clipPath id="b6b36e669d"><rect x="0" width="168" y="0" height="20"/></clipPath></defs><rect x="-37.5" width="450" fill="#ffffff" y="-37.499999" height="449.999989" fill-opacity="1"/><rect x="-37.5" width="450" fill="#ffffff" y="-37.499999" height="449.999989" fill-opacity="1"/><g clip-path="url(#b9e246c1fa)"><path fill="#ff751f" d="M 255.214844 138.328125 C 253.941406 130.992188 256.457031 117.976562 246.34375 116.625 C 230.734375 116.703125 215.109375 118.34375 199.546875 119.464844 C 202.464844 116.808594 201.144531 111.757812 197.71875 110.179688 C 192.273438 107.921875 185.71875 109.640625 180.746094 112.371094 C 178.796875 113.570312 177 114.996094 175.359375 116.59375 C 175.511719 116.316406 175.648438 116.027344 175.804688 115.75 C 177.753906 111.328125 181.542969 106.832031 181.574219 101.890625 C 180.636719 95.136719 174.253906 96.65625 170.492188 100.292969 C 160.976562 107.984375 161.359375 120.9375 160.945312 110.179688 C 160.410156 106.402344 160.269531 101.796875 157.078125 99.203125 C 154.667969 97.347656 151.398438 99.035156 150.15625 101.492188 C 149.234375 103.070312 148.867188 104.867188 148.730469 106.679688 C 147.210938 125.527344 144.492188 144.25 141.453125 162.898438 C 140.011719 171.585938 138.460938 180.257812 136.695312 188.882812 C 136.34375 190.28125 138.523438 190.957031 138.921875 189.496094 C 144.339844 161.976562 148.667969 134.214844 151.0625 106.28125 C 151.230469 104.546875 151.84375 102.441406 153.273438 101.261719 C 159.335938 97.363281 159.164062 117.46875 158.613281 121.089844 C 158.75 122.457031 157.308594 125.601562 158.980469 126.140625 C 159.582031 126.308594 160.238281 125.941406 160.394531 125.34375 C 162.878906 115.871094 165.980469 104.730469 175.28125 99.863281 C 176.09375 99.464844 177.183594 99.234375 177.921875 99.648438 C 181.972656 102.273438 175.402344 110.714844 174.097656 114.03125 C 171.492188 118.972656 168.988281 123.945312 166.992188 129.164062 C 166.53125 130.375 168.574219 131.25 169.097656 130.054688 C 172.363281 122.578125 177.8125 115.398438 185.734375 112.585938 C 189.648438 111.527344 196.644531 109.777344 198.65625 114.550781 C 199.148438 115.8125 198.71875 117.222656 197.691406 118.066406 C 195.324219 120.03125 191.949219 119.753906 189.140625 120.769531 C 182.757812 122.363281 178.304688 127.277344 176.664062 133.554688 C 173.777344 141.195312 174.175781 150.925781 180.4375 156.789062 C 182.632812 158.523438 185.472656 159.398438 188.25 159.523438 C 192.132812 160 201.617188 155.441406 201.632812 162.132812 C 200.023438 168.441406 187.945312 169.761719 182.632812 168.253906 C 181.25 167.902344 179.960938 167.335938 178.796875 166.519531 C 178.183594 166.089844 177.292969 166.535156 177.109375 167.210938 C 175.050781 174.933594 173.410156 182.761719 171.519531 190.527344 C 171.105469 192.230469 170.691406 193.933594 170.230469 195.621094 C 169.832031 197.050781 172.058594 197.664062 172.457031 196.234375 C 174.515625 188.792969 176.046875 181.226562 177.859375 173.71875 C 179.515625 166.121094 178.105469 171.125 186.746094 171.109375 C 193.117188 171.324219 204.199219 169.054688 203.875 160.917969 C 203.660156 159.445312 202.921875 158.234375 201.832031 157.421875 C 218.242188 156.128906 234.96875 156.421875 251.195312 153.722656 C 257.425781 151.296875 255.535156 143.53125 255.214844 138.328125 Z M 156.402344 101.722656 C 156.511719 101.84375 156.433594 101.765625 156.402344 101.722656 Z M 246.207031 118.894531 C 246.082031 118.878906 246.144531 118.894531 246.207031 118.894531 Z M 191.996094 124.3125 C 191.980469 124.34375 191.980469 124.375 191.996094 124.3125 Z M 179.871094 131.496094 C 179.902344 131.421875 179.886719 131.464844 179.871094 131.496094 Z M 181.941406 155.054688 C 181.925781 155.039062 181.925781 155.039062 181.941406 155.054688 Z M 190.859375 157.113281 C 182.742188 158.339844 178.242188 152.585938 177.339844 145.140625 C 176.785156 139.355469 179.011719 130.699219 183.1875 126.539062 C 184.644531 125.144531 186.46875 124.175781 188.34375 123.46875 C 189.355469 123.269531 190.644531 122.210938 189.738281 123.851562 C 188.820312 132.847656 190.445312 142.101562 191.136719 151.113281 C 191.335938 152.847656 191.503906 154.625 192.839844 155.914062 C 193.101562 156.175781 193.390625 156.390625 193.699219 156.589844 C 192.746094 156.730469 191.8125 156.960938 190.859375 157.113281 Z M 193.546875 152.078125 C 193.546875 152.125 193.5625 152.277344 193.546875 152.078125 Z M 253.402344 146.429688 C 253.402344 148.488281 252.605469 150.789062 250.550781 151.527344 C 249.890625 151.789062 249.230469 151.941406 248.523438 152.046875 C 248.476562 152.046875 248.15625 152.09375 248.460938 152.0625 C 240.863281 152.800781 233.234375 153.335938 225.609375 153.796875 C 216.136719 154.273438 206.667969 154.949219 197.199219 155.332031 C 196.660156 155.316406 196.078125 155.164062 195.355469 154.871094 C 193.515625 154.152344 193.53125 152.015625 193.347656 150.34375 C 192.546875 143.207031 192.027344 136.039062 191.765625 128.871094 C 191.640625 126.09375 191.273438 123.332031 194.25 122.503906 C 209.832031 120.355469 225.699219 119.953125 241.402344 118.925781 C 243.964844 118.820312 247.066406 118.421875 249.136719 120.03125 C 252.082031 122.578125 251.914062 126.921875 252.269531 130.5 C 252.589844 135.808594 253.386719 141.105469 253.402344 146.429688 Z M 253.402344 146.429688 " fill-opacity="1" fill-rule="nonzero"/></g><path fill="#ff751f" d="M 245.636719 122.210938 C 242.859375 120.429688 239.070312 123.410156 239.898438 126.523438 C 240.480469 128.949219 243.734375 129.871094 245.730469 128.597656 C 248.03125 127.121094 248.0625 123.578125 245.636719 122.210938 Z M 244.824219 126.355469 C 243.597656 127.722656 241.09375 126.261719 242.492188 124.621094 C 243.65625 123.070312 246.128906 124.789062 244.824219 126.355469 Z M 244.824219 126.355469 " fill-opacity="1" fill-rule="nonzero"/><path fill="#ff751f" d="M 235.644531 122.917969 C 232.867188 121.136719 229.078125 124.113281 229.90625 127.230469 C 230.488281 129.65625 233.742188 130.574219 235.738281 129.300781 C 238.039062 127.84375 238.070312 124.296875 235.644531 122.917969 Z M 234.847656 127.0625 C 233.621094 128.425781 231.117188 126.96875 232.515625 125.328125 C 233.664062 123.777344 236.136719 125.511719 234.847656 127.0625 Z M 234.847656 127.0625 " fill-opacity="1" fill-rule="nonzero"/><path fill="#ff751f" d="M 246.019531 113.417969 C 246.605469 113.585938 247.308594 113.21875 247.433594 112.617188 C 247.496094 111.160156 248.183594 109.59375 247.816406 108.183594 C 247.355469 107.324219 245.929688 107.492188 245.714844 108.460938 C 245.789062 109.777344 244.347656 112.894531 246.019531 113.417969 Z M 246.019531 113.417969 " fill-opacity="1" fill-rule="nonzero"/><path fill="#ff751f" d="M 252.039062 114.96875 C 253.171875 113.691406 254.308594 112.417969 255.445312 111.144531 C 255.84375 110.699219 255.921875 109.949219 255.445312 109.519531 C 255 109.121094 254.246094 109.042969 253.816406 109.519531 C 252.683594 110.792969 251.546875 112.066406 250.410156 113.339844 C 249.367188 114.398438 250.992188 116.042969 252.039062 114.96875 Z M 252.039062 114.96875 " fill-opacity="1" fill-rule="nonzero"/><g clip-path="url(#09f7f3d42c)"><path fill="#ff751f" d="M 260.035156 116.6875 C 259.433594 114.875 256.242188 116.703125 254.863281 116.746094 C 254.277344 116.886719 253.863281 117.589844 254.0625 118.160156 C 254.664062 119.96875 257.855469 118.144531 259.234375 118.097656 C 259.820312 117.960938 260.234375 117.253906 260.035156 116.6875 Z M 260.035156 116.6875 " fill-opacity="1" fill-rule="nonzero"/></g><g transform="matrix(1, 0, 0, 1, 42, 161)"><g clip-path="url(#5b68634dfa)"><g fill="#ff751f" fill-opacity="1"><g transform="translate(1.04848, 77.793015)"><g><path d="M 33.6875 -55.53125 C 33.6875 -53.582031 33.019531 -51.8125 31.6875 -50.21875 C 30.351562 -48.632812 28.722656 -47.210938 26.796875 -45.953125 C 24.878906 -44.703125 22.867188 -43.613281 20.765625 -42.6875 C 18.660156 -41.769531 16.84375 -41 15.3125 -40.375 C 15.3125 -39.300781 15.285156 -38.203125 15.234375 -37.078125 C 15.179688 -35.953125 15.101562 -34.820312 15 -33.6875 C 16.632812 -34.507812 18.476562 -35.28125 20.53125 -36 C 22.582031 -36.71875 24.535156 -37.078125 26.390625 -37.078125 C 27.867188 -37.078125 29.082031 -36.769531 30.03125 -36.15625 C 30.976562 -35.539062 31.453125 -34.460938 31.453125 -32.921875 C 31.453125 -31.234375 30.847656 -29.722656 29.640625 -28.390625 C 28.441406 -27.054688 26.992188 -25.875 25.296875 -24.84375 C 23.609375 -23.820312 21.84375 -22.953125 20 -22.234375 C 18.15625 -21.515625 16.59375 -20.945312 15.3125 -20.53125 C 15.3125 -18.84375 15.285156 -17.164062 15.234375 -15.5 C 15.179688 -13.832031 15.101562 -12.175781 15 -10.53125 C 14.945312 -9.71875 14.851562 -8.691406 14.71875 -7.453125 C 14.59375 -6.222656 14.335938 -5.03125 13.953125 -3.875 C 13.578125 -2.726562 13.03125 -1.726562 12.3125 -0.875 C 11.59375 -0.03125 10.664062 0.390625 9.53125 0.390625 C 8.457031 0.390625 7.535156 -0.132812 6.765625 -1.1875 C 5.992188 -2.238281 5.335938 -3.582031 4.796875 -5.21875 C 4.265625 -6.863281 3.832031 -8.695312 3.5 -10.71875 C 3.164062 -12.75 2.910156 -14.738281 2.734375 -16.6875 C 2.554688 -18.632812 2.453125 -20.425781 2.421875 -22.0625 C 2.398438 -23.707031 2.390625 -24.96875 2.390625 -25.84375 C 2.390625 -26.507812 2.398438 -27.492188 2.421875 -28.796875 C 2.453125 -30.109375 2.476562 -31.554688 2.5 -33.140625 C 2.519531 -34.734375 2.566406 -36.398438 2.640625 -38.140625 C 2.722656 -39.890625 2.816406 -41.546875 2.921875 -43.109375 C 3.023438 -44.671875 3.164062 -46.054688 3.34375 -47.265625 C 3.519531 -48.472656 3.738281 -49.359375 4 -49.921875 C 4.5625 -51.046875 5.90625 -52.160156 8.03125 -53.265625 C 10.164062 -54.367188 12.539062 -55.34375 15.15625 -56.1875 C 17.769531 -57.03125 20.316406 -57.722656 22.796875 -58.265625 C 25.285156 -58.804688 27.195312 -59.078125 28.53125 -59.078125 C 29.144531 -59.078125 29.75 -59.035156 30.34375 -58.953125 C 30.9375 -58.878906 31.488281 -58.710938 32 -58.453125 C 32.507812 -58.203125 32.914062 -57.84375 33.21875 -57.375 C 33.53125 -56.914062 33.6875 -56.300781 33.6875 -55.53125 Z M 33.6875 -55.53125 "/></g></g><g transform="translate(32.819405, 77.793015)"><g><path d="M 16.921875 2.234375 C 14.304688 2.234375 12.023438 1.539062 10.078125 0.15625 C 8.128906 -1.226562 6.488281 -3 5.15625 -5.15625 C 3.820312 -7.3125 2.820312 -9.707031 2.15625 -12.34375 C 1.488281 -14.988281 1.15625 -17.59375 1.15625 -20.15625 C 1.15625 -22.875 1.488281 -25.679688 2.15625 -28.578125 C 2.820312 -31.472656 3.847656 -34.113281 5.234375 -36.5 C 6.617188 -38.882812 8.382812 -40.832031 10.53125 -42.34375 C 12.6875 -43.851562 15.253906 -44.609375 18.234375 -44.609375 C 21.097656 -44.609375 23.539062 -43.828125 25.5625 -42.265625 C 27.59375 -40.703125 29.222656 -38.753906 30.453125 -36.421875 C 31.691406 -34.085938 32.566406 -31.535156 33.078125 -28.765625 C 33.585938 -25.992188 33.765625 -23.378906 33.609375 -20.921875 C 33.460938 -18.203125 33.039062 -15.457031 32.34375 -12.6875 C 31.65625 -9.914062 30.644531 -7.425781 29.3125 -5.21875 C 27.976562 -3.019531 26.285156 -1.226562 24.234375 0.15625 C 22.179688 1.539062 19.742188 2.234375 16.921875 2.234375 Z M 17.6875 -32.53125 C 16.914062 -32.53125 16.234375 -32.117188 15.640625 -31.296875 C 15.054688 -30.484375 14.570312 -29.484375 14.1875 -28.296875 C 13.800781 -27.117188 13.503906 -25.875 13.296875 -24.5625 C 13.097656 -23.257812 13 -22.125 13 -21.15625 C 13 -19.925781 13.113281 -18.59375 13.34375 -17.15625 C 13.570312 -15.71875 13.890625 -14.394531 14.296875 -13.1875 C 14.710938 -11.988281 15.210938 -10.988281 15.796875 -10.1875 C 16.390625 -9.394531 17.070312 -9 17.84375 -9 C 18.664062 -9 19.367188 -9.382812 19.953125 -10.15625 C 20.546875 -10.925781 21.019531 -11.898438 21.375 -13.078125 C 21.738281 -14.253906 22 -15.546875 22.15625 -16.953125 C 22.3125 -18.367188 22.390625 -19.691406 22.390625 -20.921875 C 22.390625 -22.046875 22.285156 -23.285156 22.078125 -24.640625 C 21.867188 -26.003906 21.570312 -27.273438 21.1875 -28.453125 C 20.800781 -29.640625 20.3125 -30.613281 19.71875 -31.375 C 19.132812 -32.144531 18.457031 -32.53125 17.6875 -32.53125 Z M 17.6875 -32.53125 "/></g></g><g transform="translate(68.052053, 77.793015)"><g><path d="M 20.234375 2.765625 C 16.585938 2.765625 13.75 2.289062 11.71875 1.34375 C 9.695312 0.394531 8.1875 -0.945312 7.1875 -2.6875 C 6.1875 -4.4375 5.582031 -6.539062 5.375 -9 C 5.175781 -11.457031 5.078125 -14.203125 5.078125 -17.234375 C 5.078125 -19.640625 5.148438 -22.0625 5.296875 -24.5 C 5.453125 -26.9375 5.6875 -29.539062 6 -32.3125 C 5.28125 -32.3125 4.710938 -32.296875 4.296875 -32.265625 C 3.890625 -32.242188 3.5625 -32.234375 3.3125 -32.234375 C 1.664062 -32.234375 0.242188 -32.59375 -0.953125 -33.3125 C -2.160156 -34.03125 -2.765625 -35.128906 -2.765625 -36.609375 C -2.765625 -37.535156 -2.414062 -38.359375 -1.71875 -39.078125 C -1.03125 -39.796875 -0.148438 -40.410156 0.921875 -40.921875 C 1.992188 -41.429688 3.160156 -41.835938 4.421875 -42.140625 C 5.679688 -42.453125 6.875 -42.660156 8 -42.765625 C 8 -44.203125 8.097656 -45.789062 8.296875 -47.53125 C 8.503906 -49.28125 8.878906 -50.910156 9.421875 -52.421875 C 9.960938 -53.929688 10.691406 -55.195312 11.609375 -56.21875 C 12.535156 -57.25 13.71875 -57.765625 15.15625 -57.765625 C 15.976562 -57.765625 16.707031 -57.519531 17.34375 -57.03125 C 17.988281 -56.550781 18.515625 -55.9375 18.921875 -55.1875 C 19.328125 -54.445312 19.632812 -53.613281 19.84375 -52.6875 C 20.050781 -51.769531 20.15625 -50.875 20.15625 -50 C 20.15625 -48.96875 20.078125 -47.914062 19.921875 -46.84375 C 19.765625 -45.769531 19.484375 -44.4375 19.078125 -42.84375 C 19.953125 -42.945312 20.539062 -43.007812 20.84375 -43.03125 C 21.15625 -43.0625 21.4375 -43.078125 21.6875 -43.078125 C 22.5625 -43.078125 23.472656 -43 24.421875 -42.84375 C 25.367188 -42.6875 26.238281 -42.425781 27.03125 -42.0625 C 27.832031 -41.707031 28.488281 -41.234375 29 -40.640625 C 29.507812 -40.054688 29.765625 -39.351562 29.765625 -38.53125 C 29.765625 -37.613281 29.390625 -36.796875 28.640625 -36.078125 C 27.898438 -35.359375 26.96875 -34.738281 25.84375 -34.21875 C 24.71875 -33.707031 23.515625 -33.3125 22.234375 -33.03125 C 20.953125 -32.75 19.742188 -32.554688 18.609375 -32.453125 C 18.304688 -30.359375 18.085938 -28.425781 17.953125 -26.65625 C 17.828125 -24.882812 17.6875 -23.101562 17.53125 -21.3125 C 17.4375 -20.4375 17.347656 -19.550781 17.265625 -18.65625 C 17.191406 -17.757812 17.15625 -16.847656 17.15625 -15.921875 C 17.15625 -15.253906 17.179688 -14.472656 17.234375 -13.578125 C 17.285156 -12.679688 17.460938 -11.820312 17.765625 -11 C 18.078125 -10.175781 18.566406 -9.46875 19.234375 -8.875 C 19.898438 -8.289062 20.820312 -8 22 -8 C 22.71875 -8 23.460938 -8.0625 24.234375 -8.1875 C 25.003906 -8.320312 25.769531 -8.390625 26.53125 -8.390625 C 27.863281 -8.390625 28.828125 -7.925781 29.421875 -7 C 30.015625 -6.070312 30.3125 -4.894531 30.3125 -3.46875 C 30.3125 -2.382812 29.988281 -1.445312 29.34375 -0.65625 C 28.707031 0.132812 27.898438 0.773438 26.921875 1.265625 C 25.941406 1.753906 24.847656 2.125 23.640625 2.375 C 22.441406 2.632812 21.304688 2.765625 20.234375 2.765625 Z M 20.234375 2.765625 "/></g></g><g transform="translate(97.59209, 77.793015)"><g><path d="M 16.921875 2.234375 C 14.304688 2.234375 12.023438 1.539062 10.078125 0.15625 C 8.128906 -1.226562 6.488281 -3 5.15625 -5.15625 C 3.820312 -7.3125 2.820312 -9.707031 2.15625 -12.34375 C 1.488281 -14.988281 1.15625 -17.59375 1.15625 -20.15625 C 1.15625 -22.875 1.488281 -25.679688 2.15625 -28.578125 C 2.820312 -31.472656 3.847656 -34.113281 5.234375 -36.5 C 6.617188 -38.882812 8.382812 -40.832031 10.53125 -42.34375 C 12.6875 -43.851562 15.253906 -44.609375 18.234375 -44.609375 C 21.097656 -44.609375 23.539062 -43.828125 25.5625 -42.265625 C 27.59375 -40.703125 29.222656 -38.753906 30.453125 -36.421875 C 31.691406 -34.085938 32.566406 -31.535156 33.078125 -28.765625 C 33.585938 -25.992188 33.765625 -23.378906 33.609375 -20.921875 C 33.460938 -18.203125 33.039062 -15.457031 32.34375 -12.6875 C 31.65625 -9.914062 30.644531 -7.425781 29.3125 -5.21875 C 27.976562 -3.019531 26.285156 -1.226562 24.234375 0.15625 C 22.179688 1.539062 19.742188 2.234375 16.921875 2.234375 Z M 17.6875 -32.53125 C 16.914062 -32.53125 16.234375 -32.117188 15.640625 -31.296875 C 15.054688 -30.484375 14.570312 -29.484375 14.1875 -28.296875 C 13.800781 -27.117188 13.503906 -25.875 13.296875 -24.5625 C 13.097656 -23.257812 13 -22.125 13 -21.15625 C 13 -19.925781 13.113281 -18.59375 13.34375 -17.15625 C 13.570312 -15.71875 13.890625 -14.394531 14.296875 -13.1875 C 14.710938 -11.988281 15.210938 -10.988281 15.796875 -10.1875 C 16.390625 -9.394531 17.070312 -9 17.84375 -9 C 18.664062 -9 19.367188 -9.382812 19.953125 -10.15625 C 20.546875 -10.925781 21.019531 -11.898438 21.375 -13.078125 C 21.738281 -14.253906 22 -15.546875 22.15625 -16.953125 C 22.3125 -18.367188 22.390625 -19.691406 22.390625 -20.921875 C 22.390625 -22.046875 22.285156 -23.285156 22.078125 -24.640625 C 21.867188 -26.003906 21.570312 -27.273438 21.1875 -28.453125 C 20.800781 -29.640625 20.3125 -30.613281 19.71875 -31.375 C 19.132812 -32.144531 18.457031 -32.53125 17.6875 -32.53125 Z M 17.6875 -32.53125 "/></g></g><g transform="translate(132.824738, 77.793015)"><g><path d="M 16.6875 -46.609375 C 16.6875 -43.835938 16.570312 -41.054688 16.34375 -38.265625 C 16.113281 -35.472656 16 -32.664062 16 -29.84375 C 16 -26.207031 16.113281 -22.566406 16.34375 -18.921875 C 16.570312 -15.273438 16.6875 -11.609375 16.6875 -7.921875 C 16.6875 -6.992188 16.632812 -5.953125 16.53125 -4.796875 C 16.4375 -3.648438 16.195312 -2.585938 15.8125 -1.609375 C 15.425781 -0.640625 14.847656 0.175781 14.078125 0.84375 C 13.304688 1.507812 12.28125 1.84375 11 1.84375 C 9.769531 1.84375 8.707031 1.238281 7.8125 0.03125 C 6.914062 -1.164062 6.171875 -2.703125 5.578125 -4.578125 C 4.984375 -6.453125 4.492188 -8.539062 4.109375 -10.84375 C 3.722656 -13.15625 3.441406 -15.398438 3.265625 -17.578125 C 3.085938 -19.753906 2.957031 -21.753906 2.875 -23.578125 C 2.800781 -25.398438 2.765625 -26.742188 2.765625 -27.609375 C 2.765625 -28.585938 2.800781 -30 2.875 -31.84375 C 2.957031 -33.6875 3.125 -35.6875 3.375 -37.84375 C 3.632812 -40 3.984375 -42.191406 4.421875 -44.421875 C 4.859375 -46.648438 5.4375 -48.675781 6.15625 -50.5 C 6.875 -52.320312 7.734375 -53.804688 8.734375 -54.953125 C 9.734375 -56.109375 10.925781 -56.6875 12.3125 -56.6875 C 13.4375 -56.6875 14.289062 -56.3125 14.875 -55.5625 C 15.46875 -54.820312 15.890625 -53.925781 16.140625 -52.875 C 16.398438 -51.832031 16.554688 -50.734375 16.609375 -49.578125 C 16.660156 -48.421875 16.6875 -47.429688 16.6875 -46.609375 Z M 16.6875 -46.609375 "/></g></g><g transform="translate(153.056587, 77.793015)"><g/></g><g transform="translate(171.596037, 77.793015)"><g><path d="M 41.921875 -34.609375 C 41.921875 -30.097656 41 -25.753906 39.15625 -21.578125 C 37.3125 -17.398438 34.835938 -13.691406 31.734375 -10.453125 C 28.628906 -7.222656 25.007812 -4.644531 20.875 -2.71875 C 16.75 -0.800781 12.40625 0.15625 7.84375 0.15625 L 7.6875 0.15625 C 6.769531 0.15625 6.015625 -0.265625 5.421875 -1.109375 C 4.828125 -1.960938 4.328125 -3.03125 3.921875 -4.3125 C 3.515625 -5.59375 3.207031 -7.023438 3 -8.609375 C 2.789062 -10.203125 2.632812 -11.753906 2.53125 -13.265625 C 2.4375 -14.773438 2.390625 -16.132812 2.390625 -17.34375 C 2.390625 -18.550781 2.390625 -19.460938 2.390625 -20.078125 C 2.390625 -21.816406 2.410156 -23.546875 2.453125 -25.265625 C 2.503906 -26.984375 2.582031 -28.710938 2.6875 -30.453125 C 2.6875 -31.023438 2.722656 -31.859375 2.796875 -32.953125 C 2.878906 -34.054688 2.972656 -35.300781 3.078125 -36.6875 C 3.179688 -38.070312 3.304688 -39.519531 3.453125 -41.03125 C 3.609375 -42.550781 3.773438 -43.960938 3.953125 -45.265625 C 4.140625 -46.578125 4.320312 -47.734375 4.5 -48.734375 C 4.675781 -49.734375 4.894531 -50.410156 5.15625 -50.765625 C 5.820312 -51.890625 6.847656 -52.890625 8.234375 -53.765625 C 9.617188 -54.640625 11.117188 -55.359375 12.734375 -55.921875 C 14.347656 -56.484375 15.988281 -56.90625 17.65625 -57.1875 C 19.320312 -57.46875 20.769531 -57.609375 22 -57.609375 C 25.382812 -57.609375 28.316406 -56.976562 30.796875 -55.71875 C 33.285156 -54.46875 35.363281 -52.773438 37.03125 -50.640625 C 38.695312 -48.515625 39.925781 -46.066406 40.71875 -43.296875 C 41.519531 -40.535156 41.921875 -37.640625 41.921875 -34.609375 Z M 29 -32.390625 C 29 -33.515625 28.789062 -34.664062 28.375 -35.84375 C 27.96875 -37.019531 27.390625 -38.09375 26.640625 -39.0625 C 25.898438 -40.039062 25.003906 -40.828125 23.953125 -41.421875 C 22.910156 -42.015625 21.742188 -42.3125 20.453125 -42.3125 C 19.378906 -42.3125 18.28125 -42.050781 17.15625 -41.53125 C 16.894531 -41.382812 16.660156 -40.910156 16.453125 -40.109375 C 16.253906 -39.316406 16.085938 -38.351562 15.953125 -37.21875 C 15.828125 -36.09375 15.710938 -34.863281 15.609375 -33.53125 C 15.503906 -32.195312 15.441406 -30.925781 15.421875 -29.71875 C 15.398438 -28.519531 15.375 -27.457031 15.34375 -26.53125 C 15.320312 -25.613281 15.3125 -25 15.3125 -24.6875 C 15.3125 -24.175781 15.3125 -23.421875 15.3125 -22.421875 C 15.3125 -21.421875 15.347656 -20.429688 15.421875 -19.453125 C 15.492188 -18.484375 15.582031 -17.640625 15.6875 -16.921875 C 15.789062 -16.203125 15.972656 -15.84375 16.234375 -15.84375 C 17.765625 -15.84375 19.285156 -16.441406 20.796875 -17.640625 C 22.316406 -18.847656 23.691406 -20.320312 24.921875 -22.0625 C 26.148438 -23.8125 27.132812 -25.632812 27.875 -27.53125 C 28.625 -29.4375 29 -31.054688 29 -32.390625 Z M 29 -32.390625 "/></g></g><g transform="translate(214.675257, 77.793015)"><g><path d="M 15 -53.6875 C 15 -52.96875 14.804688 -52.328125 14.421875 -51.765625 C 14.035156 -51.203125 13.535156 -50.703125 12.921875 -50.265625 C 12.304688 -49.828125 11.640625 -49.492188 10.921875 -49.265625 C 10.203125 -49.035156 9.535156 -48.921875 8.921875 -48.921875 C 7.898438 -48.921875 7.003906 -49.175781 6.234375 -49.6875 C 5.460938 -50.195312 5.078125 -50.992188 5.078125 -52.078125 C 5.078125 -52.847656 5.269531 -53.523438 5.65625 -54.109375 C 6.039062 -54.703125 6.515625 -55.191406 7.078125 -55.578125 C 7.640625 -55.960938 8.28125 -56.253906 9 -56.453125 C 9.71875 -56.660156 10.410156 -56.765625 11.078125 -56.765625 C 12.046875 -56.765625 12.941406 -56.53125 13.765625 -56.0625 C 14.585938 -55.601562 15 -54.8125 15 -53.6875 Z M 15.609375 -27.53125 C 15.609375 -26.8125 15.609375 -26.054688 15.609375 -25.265625 C 15.609375 -24.472656 15.582031 -23.71875 15.53125 -23 C 15.476562 -22.125 15.453125 -20.957031 15.453125 -19.5 C 15.453125 -18.039062 15.398438 -16.460938 15.296875 -14.765625 C 15.203125 -13.078125 15.035156 -11.359375 14.796875 -9.609375 C 14.566406 -7.867188 14.195312 -6.28125 13.6875 -4.84375 C 13.175781 -3.40625 12.5 -2.238281 11.65625 -1.34375 C 10.8125 -0.445312 9.75 0.0234375 8.46875 0.078125 C 7.488281 0.128906 6.664062 -0.253906 6 -1.078125 C 5.332031 -1.898438 4.78125 -2.960938 4.34375 -4.265625 C 3.90625 -5.578125 3.582031 -7.039062 3.375 -8.65625 C 3.175781 -10.269531 3.023438 -11.832031 2.921875 -13.34375 C 2.816406 -14.851562 2.765625 -16.25 2.765625 -17.53125 C 2.765625 -18.8125 2.765625 -19.765625 2.765625 -20.390625 C 2.765625 -21.203125 2.765625 -22.363281 2.765625 -23.875 C 2.765625 -25.394531 2.816406 -27.023438 2.921875 -28.765625 C 3.023438 -30.515625 3.21875 -32.285156 3.5 -34.078125 C 3.78125 -35.867188 4.1875 -37.507812 4.71875 -39 C 5.257812 -40.488281 5.96875 -41.691406 6.84375 -42.609375 C 7.71875 -43.535156 8.820312 -44 10.15625 -44 C 11.539062 -44 12.59375 -43.304688 13.3125 -41.921875 C 14.03125 -40.535156 14.566406 -38.921875 14.921875 -37.078125 C 15.273438 -35.234375 15.476562 -33.398438 15.53125 -31.578125 C 15.582031 -29.753906 15.609375 -28.40625 15.609375 -27.53125 Z M 15.609375 -27.53125 "/></g></g><g transform="translate(233.445488, 77.793015)"><g><path d="M 35 -10.84375 C 35 -9.925781 34.957031 -8.722656 34.875 -7.234375 C 34.800781 -5.742188 34.582031 -4.289062 34.21875 -2.875 C 33.863281 -1.46875 33.300781 -0.253906 32.53125 0.765625 C 31.769531 1.796875 30.695312 2.3125 29.3125 2.3125 C 27.40625 2.3125 25.941406 1.691406 24.921875 0.453125 C 23.898438 -0.773438 23.410156 -2.3125 23.453125 -4.15625 C 21.816406 -2.71875 19.957031 -1.585938 17.875 -0.765625 C 15.800781 0.0546875 13.6875 0.46875 11.53125 0.46875 C 10.050781 0.46875 8.644531 0.109375 7.3125 -0.609375 C 5.976562 -1.328125 4.796875 -2.25 3.765625 -3.375 C 2.742188 -4.507812 1.925781 -5.78125 1.3125 -7.1875 C 0.695312 -8.601562 0.390625 -10.003906 0.390625 -11.390625 C 0.390625 -13.847656 1.144531 -16 2.65625 -17.84375 C 4.164062 -19.6875 6.019531 -21.257812 8.21875 -22.5625 C 10.425781 -23.875 12.773438 -24.914062 15.265625 -25.6875 C 17.753906 -26.457031 19.972656 -26.972656 21.921875 -27.234375 C 21.921875 -27.484375 21.929688 -27.710938 21.953125 -27.921875 C 21.984375 -28.128906 22 -28.359375 22 -28.609375 C 22 -30.203125 21.5625 -31.484375 20.6875 -32.453125 C 19.820312 -33.429688 18.59375 -33.921875 17 -33.921875 C 15.71875 -33.921875 14.613281 -33.703125 13.6875 -33.265625 C 12.769531 -32.828125 11.898438 -32.335938 11.078125 -31.796875 C 10.253906 -31.265625 9.429688 -30.78125 8.609375 -30.34375 C 7.796875 -29.90625 6.875 -29.6875 5.84375 -29.6875 C 4.71875 -29.6875 3.753906 -30.046875 2.953125 -30.765625 C 2.160156 -31.484375 1.765625 -32.40625 1.765625 -33.53125 C 1.765625 -35.226562 2.265625 -36.769531 3.265625 -38.15625 C 4.265625 -39.539062 5.519531 -40.707031 7.03125 -41.65625 C 8.550781 -42.601562 10.191406 -43.34375 11.953125 -43.875 C 13.722656 -44.414062 15.351562 -44.6875 16.84375 -44.6875 C 18.226562 -44.6875 19.613281 -44.519531 21 -44.1875 C 22.382812 -43.851562 23.691406 -43.335938 24.921875 -42.640625 C 26.148438 -41.953125 27.265625 -41.109375 28.265625 -40.109375 C 29.265625 -39.109375 30.070312 -37.941406 30.6875 -36.609375 C 31.613281 -34.710938 32.359375 -32.703125 32.921875 -30.578125 C 33.484375 -28.453125 33.914062 -26.269531 34.21875 -24.03125 C 34.53125 -21.800781 34.738281 -19.570312 34.84375 -17.34375 C 34.945312 -15.113281 35 -12.945312 35 -10.84375 Z M 22.6875 -13.3125 L 22.453125 -18.53125 C 22.359375 -18.53125 22.257812 -18.539062 22.15625 -18.5625 C 22.050781 -18.59375 21.945312 -18.609375 21.84375 -18.609375 C 21.175781 -18.609375 20.34375 -18.441406 19.34375 -18.109375 C 18.34375 -17.773438 17.378906 -17.3125 16.453125 -16.71875 C 15.535156 -16.132812 14.753906 -15.484375 14.109375 -14.765625 C 13.472656 -14.046875 13.15625 -13.300781 13.15625 -12.53125 C 13.15625 -11.820312 13.410156 -11.335938 13.921875 -11.078125 C 14.429688 -10.816406 15.019531 -10.6875 15.6875 -10.6875 C 16.820312 -10.6875 18.03125 -10.984375 19.3125 -11.578125 C 20.59375 -12.171875 21.71875 -12.75 22.6875 -13.3125 Z M 22.6875 -13.3125 "/></g></g><g transform="translate(270.75517, 77.793015)"><g><path d="M 19 22.390625 C 17.769531 22.390625 16.375 22.195312 14.8125 21.8125 C 13.25 21.425781 11.773438 20.875 10.390625 20.15625 C 9.003906 19.4375 7.835938 18.5625 6.890625 17.53125 C 5.941406 16.507812 5.46875 15.332031 5.46875 14 C 5.46875 13.488281 5.59375 12.972656 5.84375 12.453125 C 6.101562 11.941406 6.445312 11.492188 6.875 11.109375 C 7.3125 10.722656 7.785156 10.414062 8.296875 10.1875 C 8.816406 9.957031 9.359375 9.84375 9.921875 9.84375 C 10.535156 9.84375 11.132812 9.929688 11.71875 10.109375 C 12.3125 10.296875 12.914062 10.515625 13.53125 10.765625 C 14.195312 11.023438 14.847656 11.253906 15.484375 11.453125 C 16.128906 11.660156 16.8125 11.765625 17.53125 11.765625 C 18.8125 11.765625 19.925781 11.328125 20.875 10.453125 C 21.832031 9.585938 22.644531 8.445312 23.3125 7.03125 C 23.976562 5.625 24.515625 4.0625 24.921875 2.34375 C 25.328125 0.625 25.644531 -1.078125 25.875 -2.765625 C 26.113281 -4.460938 26.28125 -6.050781 26.375 -7.53125 C 26.476562 -9.019531 26.554688 -10.226562 26.609375 -11.15625 C 24.816406 -8.4375 23.035156 -6.34375 21.265625 -4.875 C 19.492188 -3.414062 17.328125 -2.6875 14.765625 -2.6875 C 12.816406 -2.6875 11.113281 -3.097656 9.65625 -3.921875 C 8.195312 -4.742188 6.953125 -5.820312 5.921875 -7.15625 C 4.898438 -8.488281 4.054688 -10.015625 3.390625 -11.734375 C 2.722656 -13.453125 2.222656 -15.234375 1.890625 -17.078125 C 1.554688 -18.921875 1.335938 -20.726562 1.234375 -22.5 C 1.128906 -24.269531 1.128906 -25.898438 1.234375 -27.390625 C 1.285156 -28.515625 1.425781 -29.984375 1.65625 -31.796875 C 1.882812 -33.617188 2.253906 -35.398438 2.765625 -37.140625 C 3.273438 -38.890625 3.992188 -40.363281 4.921875 -41.5625 C 5.847656 -42.769531 7.050781 -43.328125 8.53125 -43.234375 C 9.507812 -43.179688 10.304688 -42.753906 10.921875 -41.953125 C 11.535156 -41.160156 12.035156 -40.175781 12.421875 -39 C 12.804688 -37.820312 13.085938 -36.523438 13.265625 -35.109375 C 13.441406 -33.703125 13.554688 -32.304688 13.609375 -30.921875 C 13.660156 -29.535156 13.671875 -28.265625 13.640625 -27.109375 C 13.617188 -25.960938 13.609375 -25.078125 13.609375 -24.453125 C 13.609375 -23.585938 13.632812 -22.71875 13.6875 -21.84375 C 13.738281 -20.96875 13.914062 -20.179688 14.21875 -19.484375 C 14.53125 -18.796875 15.003906 -18.25 15.640625 -17.84375 C 16.285156 -17.4375 17.203125 -17.234375 18.390625 -17.234375 C 19.722656 -17.234375 20.785156 -17.566406 21.578125 -18.234375 C 22.367188 -18.898438 22.957031 -19.734375 23.34375 -20.734375 C 23.726562 -21.734375 23.972656 -22.804688 24.078125 -23.953125 C 24.179688 -25.109375 24.234375 -26.203125 24.234375 -27.234375 C 24.234375 -27.953125 24.234375 -28.820312 24.234375 -29.84375 C 24.234375 -30.875 24.242188 -31.953125 24.265625 -33.078125 C 24.296875 -34.203125 24.398438 -35.316406 24.578125 -36.421875 C 24.753906 -37.523438 25.035156 -38.523438 25.421875 -39.421875 C 25.804688 -40.316406 26.316406 -41.046875 26.953125 -41.609375 C 27.597656 -42.171875 28.429688 -42.453125 29.453125 -42.453125 C 30.742188 -42.453125 31.847656 -41.953125 32.765625 -40.953125 C 33.691406 -39.953125 34.472656 -38.644531 35.109375 -37.03125 C 35.753906 -35.414062 36.269531 -33.632812 36.65625 -31.6875 C 37.039062 -29.738281 37.332031 -27.800781 37.53125 -25.875 C 37.738281 -23.957031 37.878906 -22.191406 37.953125 -20.578125 C 38.035156 -18.960938 38.078125 -17.691406 38.078125 -16.765625 C 38.078125 -14.609375 38 -12.160156 37.84375 -9.421875 C 37.6875 -6.679688 37.390625 -3.859375 36.953125 -0.953125 C 36.523438 1.941406 35.875 4.785156 35 7.578125 C 34.125 10.367188 32.976562 12.867188 31.5625 15.078125 C 30.15625 17.285156 28.425781 19.054688 26.375 20.390625 C 24.332031 21.722656 21.875 22.390625 19 22.390625 Z M 19 22.390625 "/></g></g></g></g></g><g mask="url(#71adfe03d2)"><g transform="matrix(1, 0, 0, 1, 105, 266)"><g clip-path="url(#b6b36e669d)"><g clip-path="url(#4caf0aa1a4)"><g fill="#ff751f" fill-opacity="1"><g transform="translate(0.585422, 13.213614)"><g><path d="M 11.15625 0 L 10.5625 -7.34375 L 10.484375 -7.34375 L 7.953125 -0.078125 L 6.265625 -0.078125 L 3.734375 -7.34375 L 3.65625 -7.34375 L 3.0625 0 L 0.234375 0 L 1.359375 -12.40625 L 4.359375 -12.40625 L 7.109375 -5.25 L 9.859375 -12.40625 L 12.859375 -12.40625 L 13.984375 0 Z M 11.15625 0 "/></g></g></g></g><g clip-path="url(#6b341df0a2)"><g fill="#ff751f" fill-opacity="1"><g transform="translate(17.546011, 13.213614)"><g><path d="M 7.203125 -12.40625 L 12.203125 0 L 9.171875 0 L 8.25 -2.484375 L 3.53125 -2.484375 L 2.609375 0 L -0.421875 0 L 4.578125 -12.40625 Z M 7.296875 -4.953125 L 5.90625 -8.5625 L 5.875 -8.5625 L 4.5 -4.953125 Z M 7.296875 -4.953125 "/></g></g></g></g><g fill="#ff751f" fill-opacity="1"><g transform="translate(32.070897, 13.213614)"><g/></g></g><g clip-path="url(#058edc8fc3)"><g fill="#ff751f" fill-opacity="1"><g transform="translate(38.912793, 13.213614)"><g><path d="M 3.734375 -7.703125 L 3.734375 0 L 0.90625 0 L 0.90625 -12.40625 L 3.734375 -12.40625 L 8.65625 -4.703125 L 8.6875 -4.703125 L 8.6875 -12.40625 L 11.515625 -12.40625 L 11.515625 0 L 8.6875 0 L 3.765625 -7.703125 Z M 3.734375 -7.703125 "/></g></g></g></g><g clip-path="url(#31b913ed4c)"><g fill="#ff751f" fill-opacity="1"><g transform="translate(54.069153, 13.213614)"><g><path d="M 3.734375 -12.40625 L 3.734375 0 L 0.90625 0 L 0.90625 -12.40625 Z M 3.734375 -12.40625 "/></g></g></g></g><g clip-path="url(#24e1c17dd6)"><g fill="#ff751f" fill-opacity="1"><g transform="translate(61.437271, 13.213614)"><g><path d="M 7.203125 -12.40625 L 12.203125 0 L 9.171875 0 L 8.25 -2.484375 L 3.53125 -2.484375 L 2.609375 0 L -0.421875 0 L 4.578125 -12.40625 Z M 7.296875 -4.953125 L 5.90625 -8.5625 L 5.875 -8.5625 L 4.5 -4.953125 Z M 7.296875 -4.953125 "/></g></g></g></g><g clip-path="url(#ce8b39aed4)"><g fill="#ff751f" fill-opacity="1"><g transform="translate(75.962157, 13.213614)"><g><path d="M 11.15625 0 L 10.5625 -7.34375 L 10.484375 -7.34375 L 7.953125 -0.078125 L 6.265625 -0.078125 L 3.734375 -7.34375 L 3.65625 -7.34375 L 3.0625 0 L 0.234375 0 L 1.359375 -12.40625 L 4.359375 -12.40625 L 7.109375 -5.25 L 9.859375 -12.40625 L 12.859375 -12.40625 L 13.984375 0 Z M 11.15625 0 "/></g></g></g></g><g clip-path="url(#2bdb817238)"><g fill="#ff751f" fill-opacity="1"><g transform="translate(92.922745, 13.213614)"><g><path d="M 8 -12.40625 L 8 -9.921875 L 3.734375 -9.921875 L 3.734375 -7.453125 L 7.8125 -7.453125 L 7.8125 -4.96875 L 3.734375 -4.96875 L 3.734375 -2.484375 L 8 -2.484375 L 8 0 L 0.90625 0 L 0.90625 -12.40625 Z M 8 -12.40625 "/></g></g></g></g><g fill="#ff751f" fill-opacity="1"><g transform="translate(104.380444, 13.213614)"><g/></g></g><g clip-path="url(#f6cc5e0095)"><g fill="#ff751f" fill-opacity="1"><g transform="translate(111.222339, 13.213614)"><g><path d="M 12.1875 0 L 8.296875 0 L 3.734375 -5.265625 L 3.734375 0 L 0.90625 0 L 0.90625 -12.40625 L 3.734375 -12.40625 L 3.734375 -7.328125 L 7.984375 -12.40625 L 11.40625 -12.40625 L 6.421875 -6.53125 Z M 12.1875 0 "/></g></g></g></g><g clip-path="url(#acd095d526)"><g fill="#ff751f" fill-opacity="1"><g transform="translate(125.792327, 13.213614)"><g><path d="M 3.734375 -4.96875 L 3.734375 0 L 0.90625 0 L 0.90625 -12.40625 L 3.734375 -12.40625 L 3.734375 -7.453125 L 7.71875 -7.453125 L 7.71875 -12.40625 L 10.546875 -12.40625 L 10.546875 0 L 7.71875 0 L 7.71875 -4.96875 Z M 3.734375 -4.96875 "/></g></g></g></g><g clip-path="url(#f40089d1be)"><g fill="#ff751f" fill-opacity="1"><g transform="translate(139.986433, 13.213614)"><g><path d="M 0.34375 -6.203125 C 0.34375 -8.003906 0.953125 -9.523438 2.171875 -10.765625 C 3.398438 -12.003906 4.875 -12.625 6.59375 -12.625 C 8.332031 -12.625 9.804688 -12.003906 11.015625 -10.765625 C 12.234375 -9.523438 12.84375 -8.003906 12.84375 -6.203125 C 12.84375 -4.390625 12.242188 -2.863281 11.046875 -1.625 C 9.859375 -0.394531 8.375 0.21875 6.59375 0.21875 C 4.78125 0.21875 3.285156 -0.390625 2.109375 -1.609375 C 0.929688 -2.835938 0.34375 -4.367188 0.34375 -6.203125 Z M 3.390625 -6.203125 C 3.390625 -5.554688 3.488281 -4.960938 3.6875 -4.421875 C 3.894531 -3.890625 4.25 -3.4375 4.75 -3.0625 C 5.25 -2.695312 5.863281 -2.515625 6.59375 -2.515625 C 7.644531 -2.515625 8.4375 -2.875 8.96875 -3.59375 C 9.507812 -4.3125 9.78125 -5.179688 9.78125 -6.203125 C 9.78125 -7.210938 9.503906 -8.082031 8.953125 -8.8125 C 8.410156 -9.539062 7.625 -9.90625 6.59375 -9.90625 C 5.570312 -9.90625 4.78125 -9.539062 4.21875 -8.8125 C 3.664062 -8.082031 3.390625 -7.210938 3.390625 -6.203125 Z M 3.390625 -6.203125 "/></g></g></g></g><g clip-path="url(#265c9f91c4)"><g fill="#ff751f" fill-opacity="1"><g transform="translate(155.909592, 13.213614)"><g><path d="M 3.734375 -12.40625 L 3.734375 -2.484375 L 8 -2.484375 L 8 0 L 0.90625 0 L 0.90625 -12.40625 Z M 3.734375 -12.40625 "/></g></g></g></g></g></g></g></svg>